<svg width="32" height="32" viewBox="0 0 32 32" fill="none" xmlns="http://www.w3.org/2000/svg">
<path d="M5.4 20.1C3.3 18.7 2.4 17.1 3 15.6C3.8 13.5 7.4 12.5 12.1 12.8L12 14.9C8 14.7 5.5 15.4 5.1 16.4C4.8 17.1 5.7 18 7.3 18.9L5.4 20.1Z" fill="#78D9FF"/>
<circle cx="16" cy="16" r="9.5" fill="url(#planet_body)"/>
<path d="M8.3 10.4C10.1 8 12.9 6.5 16 6.5C21.2 6.5 25.5 10.8 25.5 16C25.5 17.9 24.9 19.7 23.9 21.2C21.6 20.6 18.9 19.6 16.2 18.3C12.9 16.7 10.1 14.9 8.3 13.2V10.4Z" fill="url(#planet_highlight)"/>
<path d="M25.9 11.9C28.1 13.3 29.1 15 28.5 16.6C27.5 19.3 21.6 19.8 15.3 17.5C12.6 16.5 10.2 15.2 8.5 13.9L9.7 12.2C11.3 13.3 13.5 14.5 16.1 15.4C21.5 17.4 25.8 17.2 26.4 15.8C26.7 15 25.7 14 24 13L25.9 11.9Z" fill="url(#planet_ring)"/>
<path d="M9.5 20.7C11.2 23.6 14.5 25.7 18.3 25.4C21.5 24.6 24 22.3 25 19.2C20.5 19.4 14.4 17.6 9.5 14.5V20.7Z" fill="url(#planet_shadow)"/>
<defs>
<linearGradient id="planet_body" x1="8" y1="7" x2="24" y2="25" gradientUnits="userSpaceOnUse">
<stop stop-color="#36E6C8"/>
<stop offset="0.55" stop-color="#2497FF"/>
<stop offset="1" stop-color="#5E5CFF"/>
</linearGradient>
<linearGradient id="planet_highlight" x1="9" y1="7" x2="24" y2="20" gradientUnits="userSpaceOnUse">
<stop stop-color="#9BF6E5"/>
<stop offset="1" stop-color="#4EC2FF" stop-opacity="0"/>
</linearGradient>
<linearGradient id="planet_ring" x1="8" y1="12" x2="28" y2="18" gradientUnits="userSpaceOnUse">
<stop stop-color="#F7FBFF"/>
<stop offset="0.5" stop-color="#8DE9FF"/>
<stop offset="1" stop-color="#F7FBFF"/>
</linearGradient>
<linearGradient id="planet_shadow" x1="12" y1="18" x2="24" y2="25" gradientUnits="userSpaceOnUse">
<stop stop-color="#2C6FFF" stop-opacity="0"/>
<stop offset="1" stop-color="#26307F"/>
</linearGradient>
</defs>
</svg>
