<svg xmlns="http://www.w3.org/2000/svg" viewBox="0 0 190 133.37" role="img" aria-label="Hysteria 2">
  <g fill="#e9fff7">
    <polygon points="30.03 57.93 24.79 117.79 42.29 117.79 45.99 75.43 46.01 75.43 47.52 57.93 30.03 57.93"/>
    <polygon points="51.21 15.57 33.72 15.57 31.43 41.81 48.92 41.81 51.21 15.57"/>
    <polygon points="131.32 117.79 148.68 117.79 150.98 91.55 133.61 91.55 131.32 117.79"/>
    <polygon points="157.61 15.58 140.25 15.58 135.78 66.68 91.2 66.68 85.37 133.37 120.77 83.26 180.95 83.26 182.4 66.68 153.14 66.68 157.61 15.58"/>
  </g>
  <polygon fill="#ffbc00" points="61.63 50.11 1.45 50.11 0 66.68 91.2 66.68 97.03 0 61.63 50.11"/>
</svg>
